<svg width="1440" height="760" viewBox="0 0 1440 760" fill="none" xmlns="http://www.w3.org/2000/svg">
  <defs>
    <linearGradient id="bg1" x1="0" y1="0" x2="1440" y2="760" gradientUnits="userSpaceOnUse">
      <stop stop-color="#EFF2F5"/>
      <stop offset="1" stop-color="#E3E8EE"/>
    </linearGradient>
    <linearGradient id="panel1" x1="1080" y1="90" x2="770" y2="580" gradientUnits="userSpaceOnUse">
      <stop stop-color="#F7F9FB"/>
      <stop offset="0.55" stop-color="#BFC8D3"/>
      <stop offset="1" stop-color="#42506A"/>
    </linearGradient>
    <linearGradient id="spark1" x1="945" y1="360" x2="1240" y2="160" gradientUnits="userSpaceOnUse">
      <stop stop-color="#FF7A1A" stop-opacity="0"/>
      <stop offset="0.45" stop-color="#FF7A1A" stop-opacity="0.8"/>
      <stop offset="1" stop-color="#FFD08A" stop-opacity="0"/>
    </linearGradient>
  </defs>

  <rect width="1440" height="760" fill="url(#bg1)"/>
  <rect x="64" y="72" width="1312" height="616" rx="8" fill="#F4F6F8"/>

  <rect x="100" y="118" width="520" height="524" rx="6" fill="#11295A"/>
  <rect x="100" y="118" width="520" height="150" rx="6" fill="#F06A13"/>
  <text x="140" y="182" fill="#FFF4EA" font-size="15" font-family="Space Grotesk, Arial, sans-serif" letter-spacing="3">SERVICE SPOTLIGHT</text>
  <text x="140" y="322" fill="#FFFFFF" font-size="66" font-weight="700" font-family="Space Grotesk, Arial, sans-serif">
    <tspan x="140" dy="0">Metal Welding</tspan>
    <tspan x="140" dy="72">&amp; Bespoke</tspan>
    <tspan x="140" dy="72">Fabrication</tspan>
  </text>
  <text x="140" y="484" fill="#B8C5D7" font-size="24" font-family="Inter, Arial, sans-serif">
    <tspan x="140" dy="0">Custom stainless steel builds, repair work,</tspan>
    <tspan x="140" dy="34">on-site modifications, and workshop welding</tspan>
    <tspan x="140" dy="34">for commercial and industrial projects.</tspan>
  </text>

  <rect x="140" y="560" width="186" height="54" fill="#F06A13"/>
  <text x="173" y="594" fill="#FFFFFF" font-size="18" font-weight="700" font-family="Space Grotesk, Arial, sans-serif">Request Quote</text>

  <rect x="346" y="560" width="170" height="54" stroke="#6E86A7"/>
  <text x="391" y="594" fill="#E7EDF6" font-size="18" font-weight="700" font-family="Space Grotesk, Arial, sans-serif">View Services</text>

  <rect x="662" y="118" width="650" height="524" rx="6" fill="url(#panel1)"/>
  <rect x="700" y="156" width="574" height="448" rx="4" fill="#CCD3DB"/>
  <rect x="720" y="176" width="536" height="410" rx="4" fill="#21314A"/>
  <rect x="760" y="212" width="456" height="338" rx="4" fill="#90A0AF"/>
  <path d="M875 224L1092 224L1182 548L966 548L875 224Z" fill="#D8DEE5"/>
  <path d="M812 252L973 252L1086 548L926 548L812 252Z" fill="#5B6A7F"/>
  <circle cx="1056" cy="368" r="118" fill="url(#spark1)"/>
  <path d="M940 298L1110 468" stroke="#FFD391" stroke-width="6" stroke-linecap="round"/>
  <path d="M918 342L1088 512" stroke="#FFE5B4" stroke-width="3" stroke-linecap="round"/>
  <path d="M990 276L1160 446" stroke="#FFC369" stroke-width="4" stroke-linecap="round"/>
  <circle cx="1040" cy="370" r="10" fill="#FFF1D7"/>

  <rect x="722" y="542" width="164" height="56" rx="28" fill="#F5F8FB"/>
  <text x="754" y="577" fill="#10275C" font-size="18" font-weight="700" font-family="Space Grotesk, Arial, sans-serif">Custom builds</text>

  <rect x="902" y="542" width="154" height="56" rx="28" fill="#F5F8FB"/>
  <text x="939" y="577" fill="#10275C" font-size="18" font-weight="700" font-family="Space Grotesk, Arial, sans-serif">On-site repairs</text>

  <rect x="1072" y="542" width="190" height="56" rx="28" fill="#F5F8FB"/>
  <text x="1115" y="577" fill="#10275C" font-size="18" font-weight="700" font-family="Space Grotesk, Arial, sans-serif">Industrial projects</text>

  <text x="102" y="706" fill="#73829A" font-size="18" font-family="Inter, Arial, sans-serif">Option 1  Split editorial panel with premium service emphasis</text>
</svg>
