<svg width="1440" height="760" viewBox="0 0 1440 760" fill="none" xmlns="http://www.w3.org/2000/svg">
  <defs>
    <linearGradient id="bg2" x1="0" y1="0" x2="1440" y2="760" gradientUnits="userSpaceOnUse">
      <stop stop-color="#F2F4F6"/>
      <stop offset="1" stop-color="#E8EDF2"/>
    </linearGradient>
    <linearGradient id="top2" x1="92" y1="118" x2="1348" y2="118" gradientUnits="userSpaceOnUse">
      <stop stop-color="#F06A13"/>
      <stop offset="1" stop-color="#FF8C31"/>
    </linearGradient>
    <linearGradient id="card2a" x1="148" y1="286" x2="474" y2="612" gradientUnits="userSpaceOnUse">
      <stop stop-color="#FFFFFF"/>
      <stop offset="1" stop-color="#EEF2F6"/>
    </linearGradient>
    <linearGradient id="card2b" x1="556" y1="286" x2="882" y2="612" gradientUnits="userSpaceOnUse">
      <stop stop-color="#FFFFFF"/>
      <stop offset="1" stop-color="#EDF3F8"/>
    </linearGradient>
    <linearGradient id="card2c" x1="964" y1="286" x2="1290" y2="612" gradientUnits="userSpaceOnUse">
      <stop stop-color="#FFFFFF"/>
      <stop offset="1" stop-color="#EEF1F5"/>
    </linearGradient>
  </defs>

  <rect width="1440" height="760" fill="url(#bg2)"/>
  <rect x="92" y="92" width="1256" height="576" rx="8" fill="#F5F7F9"/>
  <rect x="92" y="92" width="1256" height="12" fill="url(#top2)"/>

  <text x="128" y="172" fill="#F06A13" font-size="16" font-weight="700" font-family="Space Grotesk, Arial, sans-serif" letter-spacing="2.5">BEYOND PRODUCTS AND INSTALLATION</text>
  <text x="128" y="266" fill="#10275C" font-size="62" font-weight="700" font-family="Space Grotesk, Arial, sans-serif">
    <tspan x="128" dy="0">Metal welding services for</tspan>
    <tspan x="128" dy="72">commercial and bespoke work</tspan>
  </text>
  <text x="924" y="176" fill="#6C7A91" font-size="24" font-family="Inter, Arial, sans-serif">
    <tspan x="924" dy="0">From one-off stainless steel fabrication to</tspan>
    <tspan x="924" dy="34">repairs, upgrades, and on-site welding support.</tspan>
  </text>

  <rect x="128" y="320" width="344" height="274" rx="6" fill="url(#card2a)"/>
  <rect x="128" y="320" width="344" height="274" rx="6" stroke="#D0D7E0"/>
  <circle cx="198" cy="390" r="36" fill="#10275C"/>
  <path d="M182 398L195 367L213 414" stroke="#FFFFFF" stroke-width="6" stroke-linecap="round" stroke-linejoin="round"/>
  <path d="M214 372L232 404" stroke="#FFFFFF" stroke-width="6" stroke-linecap="round"/>
  <text x="128" y="474" fill="#10275C" font-size="34" font-weight="700" font-family="Space Grotesk, Arial, sans-serif">Custom Fabrication</text>
  <text x="128" y="520" fill="#74839B" font-size="22" font-family="Inter, Arial, sans-serif">
    <tspan x="128" dy="0">Counters, frames, housings, trims,</tspan>
    <tspan x="128" dy="30">brackets, and bespoke stainless builds.</tspan>
  </text>
  <text x="128" y="570" fill="#F06A13" font-size="18" font-weight="700" font-family="Space Grotesk, Arial, sans-serif">Explore fabrication  -></text>

  <rect x="548" y="320" width="344" height="274" rx="6" fill="url(#card2b)"/>
  <rect x="548" y="320" width="344" height="274" rx="6" stroke="#D0D7E0"/>
  <circle cx="618" cy="390" r="36" fill="#F06A13"/>
  <path d="M602 388H634" stroke="#FFFFFF" stroke-width="6" stroke-linecap="round"/>
  <path d="M618 372V404" stroke="#FFFFFF" stroke-width="6" stroke-linecap="round"/>
  <path d="M595 409C610 395 626 395 641 409" stroke="#FFFFFF" stroke-width="5" stroke-linecap="round"/>
  <text x="548" y="474" fill="#10275C" font-size="34" font-weight="700" font-family="Space Grotesk, Arial, sans-serif">Repair &amp; Modification</text>
  <text x="548" y="520" fill="#74839B" font-size="22" font-family="Inter, Arial, sans-serif">
    <tspan x="548" dy="0">Alterations, patch repairs, reinforcements,</tspan>
    <tspan x="548" dy="30">and upgrades for existing metalwork.</tspan>
  </text>
  <text x="548" y="570" fill="#F06A13" font-size="18" font-weight="700" font-family="Space Grotesk, Arial, sans-serif">See repair work  -></text>

  <rect x="968" y="320" width="344" height="274" rx="6" fill="url(#card2c)"/>
  <rect x="968" y="320" width="344" height="274" rx="6" stroke="#D0D7E0"/>
  <circle cx="1038" cy="390" r="36" fill="#10275C"/>
  <path d="M1020 404L1036 372L1052 404L1066 378" stroke="#FFFFFF" stroke-width="6" stroke-linecap="round" stroke-linejoin="round"/>
  <text x="968" y="474" fill="#10275C" font-size="34" font-weight="700" font-family="Space Grotesk, Arial, sans-serif">On-site Welding</text>
  <text x="968" y="520" fill="#74839B" font-size="22" font-family="Inter, Arial, sans-serif">
    <tspan x="968" dy="0">Commercial installs, urgent fixes, and</tspan>
    <tspan x="968" dy="30">practical support where the work happens.</tspan>
  </text>
  <text x="968" y="570" fill="#F06A13" font-size="18" font-weight="700" font-family="Space Grotesk, Arial, sans-serif">Book a site visit  -></text>

  <rect x="1154" y="144" width="158" height="52" rx="26" fill="#10275C"/>
  <text x="1191" y="177" fill="#FFFFFF" font-size="18" font-weight="700" font-family="Space Grotesk, Arial, sans-serif">Request a quote</text>

  <text x="94" y="706" fill="#73829A" font-size="18" font-family="Inter, Arial, sans-serif">Option 2  Clear three-card capability section before the category grid</text>
</svg>
